<svg width="98" height="86" viewBox="0 0 98 86" fill="none" xmlns="http://www.w3.org/2000/svg">
<path d="M96.1631 71.9783H28.0087C27.4952 71.9783 27.0751 72.3989 27.0751 72.913V79.4565C27.0751 79.9707 27.4952 80.3913 28.0087 80.3913H96.1631C96.6766 80.3913 97.0968 79.9707 97.0968 79.4565V72.913C97.0968 72.3989 96.6766 71.9783 96.1631 71.9783ZM96.1631 5.6087H28.0087C27.4952 5.6087 27.0751 6.02935 27.0751 6.54348V13.087C27.0751 13.6011 27.4952 14.0217 28.0087 14.0217H96.1631C96.6766 14.0217 97.0968 13.6011 97.0968 13.087V6.54348C97.0968 6.02935 96.6766 5.6087 96.1631 5.6087ZM96.1631 38.7935H28.0087C27.4952 38.7935 27.0751 39.2141 27.0751 39.7283V46.2717C27.0751 46.7859 27.4952 47.2065 28.0087 47.2065H96.1631C96.6766 47.2065 97.0968 46.7859 97.0968 46.2717V39.7283C97.0968 39.2141 96.6766 38.7935 96.1631 38.7935ZM14.0043 66.3696H0.466811C0.210065 66.3696 0 66.5799 0 66.837V70.8098C0 71.0668 0.210065 71.2772 0.466811 71.2772H8.9161V73.6726H4.74981C4.49306 73.6726 4.28299 73.8829 4.28299 74.1399V78.1128C4.28299 78.3698 4.49306 78.5802 4.74981 78.5802H8.9161V81.0924H0.466811C0.210065 81.0924 0 81.3027 0 81.5598V85.5326C0 85.7897 0.210065 86 0.466811 86H14.0043C14.2611 86 14.4712 85.7897 14.4712 85.5326V66.837C14.4712 66.5799 14.2611 66.3696 14.0043 66.3696ZM0.466811 5.1413H4.90152V19.163C4.90152 19.4201 5.11158 19.6304 5.36833 19.6304H10.0364C10.2932 19.6304 10.5033 19.4201 10.5033 19.163V0.934783C10.5033 0.420652 10.0831 0 9.56963 0H0.466811C0.210065 0 0 0.210326 0 0.467391V4.67391C0 4.93098 0.210065 5.1413 0.466811 5.1413ZM14.0043 33.1848H0.466811C0.210065 33.1848 0 33.3951 0 33.6522V37.8587C0 38.1158 0.210065 38.3261 0.466811 38.3261H8.44929L0.245076 47.4052C0.0903358 47.5792 0.00333956 47.8032 0 48.0361V52.3478C0 52.6049 0.210065 52.8152 0.466811 52.8152H14.0043C14.2611 52.8152 14.4712 52.6049 14.4712 52.3478V48.1413C14.4712 47.8842 14.2611 47.6739 14.0043 47.6739H6.02187L14.2261 38.5948C14.3808 38.4208 14.4678 38.1968 14.4712 37.9639V33.6522C14.4712 33.3951 14.2611 33.1848 14.0043 33.1848V33.1848Z" fill="#F68121"/>
</svg>
