<svg width="87" height="88" viewBox="0 0 87 88" fill="none" xmlns="http://www.w3.org/2000/svg">
<path d="M67.8563 44.0035V80.7672H7.11302V18.7055H43.7151H43.9253L44.0724 18.5553L49.6854 12.8225L50.5174 11.9727H49.3281H6.61302C4.9883 11.9727 3.43231 12.632 2.28675 13.802C1.14154 14.9716 0.5 16.5558 0.5 18.2055V81.2672C0.5 82.9168 1.14154 84.501 2.28675 85.6707C3.43231 86.8407 4.9883 87.5 6.61302 87.5H68.3563C69.981 87.5 71.537 86.8407 72.6825 85.6707C73.8278 84.501 74.4693 82.9168 74.4693 81.2672V38.2706V37.0452L73.612 37.9208L67.999 43.6537L67.8563 43.7994V44.0035Z" fill="#F68121" stroke="#F68121"/>
<path d="M67.6574 2.00741L67.6579 2.00685C68.1236 1.52992 68.6774 1.15094 69.288 0.892152C69.8985 0.633357 70.5534 0.5 71.2151 0.5C71.8768 0.5 72.5317 0.633357 73.1422 0.892152C73.7528 1.15094 74.3066 1.52992 74.7723 2.00685L84.2293 11.6658L67.6574 2.00741ZM67.6574 2.00741L29.1801 41.5356L29.0818 41.6366M67.6574 2.00741L29.0818 41.6366M29.0818 41.6366L29.0507 41.7741M29.0818 41.6366L29.0507 41.7741M29.0507 41.7741L25.9355 55.5617L25.9353 55.5617M29.0507 41.7741L25.9353 55.5617M25.9353 55.5617L25.9327 55.5745M25.9353 55.5617L25.9327 55.5745M25.9327 55.5745C25.7859 56.3138 25.8014 57.0771 25.9779 57.8096C26.1545 58.5422 26.4881 59.2265 26.9552 59.813C27.4224 60.3995 28.0117 60.8739 28.6812 61.2012C29.3427 61.5245 30.066 61.6962 30.8001 61.7039C31.1736 61.744 31.5503 61.743 31.9237 61.701L31.9509 61.6979M25.9327 55.5745L31.9509 61.6979M31.9509 61.6979L31.9777 61.6919M31.9509 61.6979L31.9777 61.6919M31.9777 61.6919L45.5893 58.6248L45.7346 58.5921M31.9777 61.6919L45.7346 58.5921M45.7346 58.5921L45.8383 58.4851M45.7346 58.5921L45.8383 58.4851M45.8383 58.4851L84.2293 18.9018M45.8383 58.4851L84.2293 18.9018M84.2293 18.9018C84.2297 18.9014 84.2302 18.9009 84.2306 18.9004M84.2293 18.9018L84.2306 18.9004M84.2306 18.9004C84.6969 18.4251 85.0664 17.8611 85.3184 17.241C85.5706 16.6203 85.7003 15.9552 85.7003 15.2838C85.7003 14.6124 85.5706 13.9473 85.3184 13.3266C85.0662 12.7061 84.6965 12.1418 84.2297 11.6663L84.2306 18.9004ZM70.8531 23.0529L42.3057 52.3791L32.9537 54.493L35.1304 44.999L63.6387 15.6844L70.8531 23.0529ZM78.4286 15.34L74.7244 19.0992L67.5054 11.7261L71.1624 7.91865L78.4286 15.34Z" fill="#F68121" stroke="#F68121"/>
</svg>
