<svg width="51" height="86" viewBox="0 0 51 86" fill="none" xmlns="http://www.w3.org/2000/svg">
<path d="M0 77.4V8.6C0 3.87 3.78909 0 8.42021 0H42.101C46.7322 0 50.5213 3.87 50.5213 8.6V77.4C50.5213 82.13 46.7322 86 42.101 86H8.42021C3.78909 86 0 82.13 0 77.4Z" fill="#F68121"/>
<path d="M42.1033 6.44922H8.42244C7.1594 6.44922 6.31738 7.30922 6.31738 8.59922V70.9492C6.31738 72.2392 7.1594 73.0992 8.42244 73.0992H42.1033C43.3663 73.0992 44.2083 72.2392 44.2083 70.9492V8.59922C44.2083 7.30922 43.3663 6.44922 42.1033 6.44922Z" fill="#EEE7DF"/>
<path d="M25.2591 82.7762C27.003 82.7762 28.4167 81.3323 28.4167 79.5512C28.4167 77.7701 27.003 76.3262 25.2591 76.3262C23.5153 76.3262 22.1016 77.7701 22.1016 79.5512C22.1016 81.3323 23.5153 82.7762 25.2591 82.7762Z" fill="#A6642A"/>
<path d="M26.5542 37.903C21.7758 36.6345 20.2391 35.323 20.2391 33.2805C20.2391 30.937 22.3652 29.303 25.9227 29.303C29.6697 29.303 31.0591 31.1305 31.1854 33.818H35.8375C35.6902 30.12 33.4799 26.723 29.0803 25.6265V20.918H22.7651V25.562C18.6813 26.465 15.3975 29.174 15.3975 33.3235C15.3975 38.29 19.4181 40.7625 25.2912 42.203C30.5538 43.493 31.6064 45.385 31.6064 47.3845C31.6064 48.868 30.5749 51.233 25.9227 51.233C21.5863 51.233 19.8812 49.255 19.6497 46.718H15.0186C15.2712 51.4265 18.7234 54.071 22.7651 54.9525V59.618H29.0803V54.9955C33.1852 54.2 36.448 51.7705 36.448 47.363C36.448 41.257 31.3327 39.1715 26.5542 37.903Z" fill="#F68121"/>
</svg>
