<svg width="42" height="30" viewBox="0 0 42 30" fill="none" xmlns="http://www.w3.org/2000/svg">
<path d="M40.1122 5.3716C39.8844 4.52487 39.4381 3.75285 38.818 3.13282C38.198 2.51278 37.426 2.06649 36.5792 1.8386C34.2652 0.944605 11.8472 0.506604 5.34325 1.8636C4.49639 2.09158 3.72429 2.53802 3.10425 3.15824C2.4842 3.77846 2.03798 4.55069 1.81024 5.3976C0.765245 9.98061 0.686245 19.8886 1.83624 24.5746C2.06413 25.4213 2.51042 26.1934 3.13046 26.8134C3.75049 27.4334 4.52251 27.8797 5.36925 28.1076C9.95225 29.1626 31.7402 29.3106 36.6052 28.1076C37.452 27.8797 38.224 27.4334 38.844 26.8134C39.4641 26.1934 39.9104 25.4213 40.1382 24.5746C41.2522 19.5816 41.3312 10.2876 40.1122 5.3716V5.3716Z" stroke="#3C3D3C" stroke-width="1.5" stroke-linecap="round" stroke-linejoin="round"/>
<path d="M27.5681 14.9724L17.1211 8.98145V20.9634L27.5681 14.9724Z" stroke="#3C3D3C" stroke-width="1.5" stroke-linecap="round" stroke-linejoin="round"/>
</svg>
