<svg width="86" height="87" viewBox="0 0 86 87" fill="none" xmlns="http://www.w3.org/2000/svg">
<path d="M38.8924 26.0127C43.9354 25.0273 49.1527 25.4572 53.9663 27.2549C54.2001 27.3474 54.4133 27.4851 54.5938 27.66C54.7743 27.835 54.9186 28.0438 55.0184 28.2745C55.22 28.7404 55.2282 29.2673 55.0413 29.7393C54.8544 30.2113 54.4877 30.5898 54.0218 30.7914C53.5558 30.993 53.0289 31.0012 52.5569 30.8143C48.4122 29.2472 43.9164 28.8505 39.5613 29.6677C39.306 29.7349 39.0396 29.7484 38.7788 29.7075C38.518 29.6666 38.2685 29.5721 38.0461 29.43C37.8236 29.2879 37.633 29.1012 37.4863 28.8818C37.3395 28.6624 37.2399 28.4149 37.1935 28.155C37.1472 27.8952 37.1552 27.6285 37.217 27.3719C37.2788 27.1152 37.3931 26.8742 37.5528 26.6639C37.7124 26.4537 37.9138 26.2788 38.1444 26.1502C38.375 26.0217 38.6297 25.9423 38.8924 25.9171V26.0127Z" fill="#F68121"/>
<path d="M25.3722 44.1667C23.5779 44.1667 22.1233 42.7121 22.1233 40.9178C22.1233 39.1235 23.5779 37.6689 25.3722 37.6689C27.1665 37.6689 28.6211 39.1235 28.6211 40.9178C28.6211 42.7121 27.1665 44.1667 25.3722 44.1667Z" fill="#F68121"/>
<path fill-rule="evenodd" clip-rule="evenodd" d="M37.4214 18.4591C34.7806 19.0518 32.202 19.9087 29.7252 21.0194C27.7302 19.4554 25.5473 18.1473 23.2274 17.1255C19.1795 15.3638 14.7264 14.7442 10.3513 15.3338C9.66646 15.441 9.0185 15.715 8.46446 16.1316C7.91041 16.5482 7.46728 17.0946 7.17408 17.7227C6.88132 18.4131 6.76515 19.1656 6.83605 19.9121C6.90695 20.6587 7.16269 21.3758 7.58018 21.9988L14.4602 32.7488C12.7764 36.0246 10.6636 39.0613 8.1774 41.7788C6.88546 43.2375 5.1147 44.1864 3.18463 44.4544C2.78929 44.4498 2.399 44.5435 2.04878 44.7269C1.69855 44.9104 1.39934 45.1779 1.17796 45.5055C0.959931 45.8331 0.826215 46.2095 0.788707 46.6013C0.751198 46.993 0.811062 47.388 0.962964 47.751L6.36185 61.6305C6.51586 62.0187 6.76896 62.3597 7.09591 62.6196C7.42286 62.8795 7.81222 63.0491 8.22518 63.1116C10.6054 63.3993 13.0116 63.3993 15.3919 63.1116C17.5228 65.2206 19.9441 67.0145 22.5824 68.4388C22.3196 69.5138 21.9852 70.6366 21.5552 71.9027C21.2446 72.7866 20.8385 73.8138 20.4324 74.7694C20.2786 75.1324 20.2171 75.5279 20.2534 75.9205C20.2896 76.3132 20.4224 76.6907 20.6401 77.0195C20.8577 77.3483 21.1533 77.6181 21.5006 77.8049C21.8478 77.9917 22.2359 78.0896 22.6302 78.0899H32.998C33.3709 78.0871 33.7379 77.9971 34.0698 77.827C34.4016 77.657 34.6891 77.4116 34.9091 77.1105C35.9602 75.701 36.9157 74.2677 37.7996 72.8344C40.9771 73.1485 44.1777 73.1485 47.3552 72.8344L50.1741 72.5238L49.2424 74.6738C49.0937 75.0357 49.0362 75.4286 49.0749 75.8179C49.1136 76.2073 49.2474 76.5812 49.4644 76.9067C49.6814 77.2323 49.9751 77.4995 50.3196 77.685C50.6641 77.8705 51.0489 77.9685 51.4402 77.9705H62.238C62.5772 77.97 62.9124 77.8974 63.2213 77.7573C63.5302 77.6173 63.8058 77.4131 64.0296 77.1582C67.1743 73.4695 69.8171 69.3809 71.8891 64.9988L72.2952 64.091C74.8878 58.8785 76.3684 53.184 76.643 47.3688L78.8407 46.2699C80.2188 45.5787 81.4419 44.6145 82.4358 43.4358C83.4296 42.2572 84.1733 40.8888 84.6219 39.4138C84.9862 38.1966 85.1042 36.9189 84.9688 35.6555C84.8335 34.3921 84.4475 33.1684 83.8335 32.056C83.1731 30.8707 82.2188 29.8753 81.0624 29.1655C80.7722 28.9898 80.4503 28.873 80.115 28.8217C79.7796 28.7705 79.4375 28.7858 79.1081 28.8667C78.7787 28.9477 78.4684 29.0927 78.1951 29.2936C77.9217 29.4945 77.6906 29.7472 77.5149 30.0374C77.3392 30.3276 77.2224 30.6495 77.1712 30.9849C77.1199 31.3202 77.1352 31.6623 77.2162 31.9917C77.2971 32.3212 77.4422 32.6314 77.6431 32.9048C77.8439 33.1781 78.0967 33.4092 78.3869 33.5849C78.8124 33.8326 79.1664 34.1865 79.4141 34.6121C79.6903 35.119 79.8621 35.6761 79.9196 36.2505C79.977 36.8249 79.9189 37.405 79.7485 37.9566C79.4822 38.7609 79.0516 39.5012 78.4841 40.1304C77.9166 40.7596 77.2246 41.264 76.4519 41.6116C74.9949 30.9038 66.2503 22.1309 54.9948 18.8848C53.8037 20.5539 52.1411 21.8633 50.2015 22.6187C61.46 24.4625 70.6161 32.5901 71.6741 42.7582C72.3143 49.4606 71.0035 56.2052 67.8996 62.1799L67.4696 63.1116C65.7666 66.709 63.6328 70.0861 61.1152 73.1688H54.9519C55.2385 72.4282 56.7435 66.6232 56.7435 66.6232L53.0407 67.2682C50.9863 67.6266 48.3585 67.961 46.7819 68.1044C43.3978 68.3987 39.9911 68.3025 36.6291 67.8177L35.0285 67.6027C35.0285 67.6027 32.138 72.4282 31.5646 73.2405H25.8791C26.6674 70.9232 27.838 65.6916 27.838 65.6916L25.3057 64.5449C23.7547 63.8181 22.3084 62.886 21.0057 61.7738C22.0599 61.3744 23.089 60.9117 24.0874 60.3882C24.6327 60.0852 25.0379 59.5808 25.2162 58.983C25.3945 58.3852 25.3319 57.7413 25.0417 57.189C24.7516 56.6367 24.2568 56.2199 23.6633 56.0276C23.0698 55.8353 22.4247 55.8828 21.8657 56.1599C19.9785 57.1789 17.9367 57.881 15.8219 58.2382C13.9647 58.5197 12.0833 58.6078 10.208 58.501L6.40963 48.5632C8.31666 47.8056 10.0543 46.6769 11.5219 45.2427C14.6814 41.7743 17.3427 37.8828 19.4291 33.6805L20.0263 32.486L11.9519 19.8488C15.2166 19.5639 18.5009 20.0976 21.5074 21.4016C23.7798 22.4311 25.8822 23.8004 27.7424 25.4627L28.9369 26.5855L30.418 25.8927C34.0715 24.1037 37.9941 22.9307 42.0275 22.4199C40.1336 21.5735 38.5333 20.1883 37.4214 18.4591Z" fill="#F68121"/>
<path d="M46.3523 0.5C39.6261 0.5 34.125 6.00113 34.125 12.7273C34.125 19.4534 39.6261 24.9545 46.3523 24.9545C53.0784 24.9545 58.5795 19.4534 58.5795 12.7273C58.5795 6.00113 53.0784 0.5 46.3523 0.5ZM46.3523 22.342C41.058 22.342 36.7375 18.0216 36.7375 12.7273C36.7375 7.43296 41.058 3.1125 46.3523 3.1125C51.6466 3.1125 55.967 7.43296 55.967 12.7273C55.967 18.0216 51.6466 22.342 46.3523 22.342Z" fill="#F68121" stroke="#F68121"/>
<path d="M47.3493 11.3983L47.3494 11.398L47.3405 11.3959C46.8443 11.2788 46.3529 11.0455 45.9877 10.7007L45.9668 10.681L45.9394 10.6723C45.6255 10.5736 45.5142 10.2753 45.5142 10.0656C45.5142 9.96389 45.5418 9.83076 45.5985 9.71049C45.6555 9.58926 45.7347 9.49631 45.8271 9.45267L45.8339 9.44945L45.8403 9.44543C46.035 9.32293 46.217 9.20887 46.3963 9.13835C46.5732 9.06875 46.7344 9.04702 46.8897 9.09588L46.908 9.10165H46.9272C47.656 9.10165 48.2616 9.44557 48.6237 9.90137L48.7216 10.0246L48.8195 9.90137L49.973 8.44942L50.0444 8.35956L49.9609 8.28078C49.5675 7.90939 49.1743 7.66193 48.7914 7.42094L48.7882 7.41891C48.4112 7.18163 47.9253 7.05713 47.4367 7.03903V5.46777V5.34277H47.3117H45.7737H45.6487V5.46777V7.06004C45.0147 7.20375 44.3932 7.56718 43.8936 8.03878L43.8931 8.03822L43.884 8.04887C43.3671 8.65884 42.953 9.41859 43.0854 10.1975C43.088 10.9468 43.3536 11.7036 43.8936 12.2134C44.4603 12.7485 45.2215 13.0992 45.9053 13.4143C46.017 13.4658 46.1267 13.5163 46.2331 13.5665L46.2408 13.5702L46.2489 13.5727C46.6185 13.689 47.1155 13.9228 47.4909 14.1576C47.7117 14.3714 47.8276 14.6947 47.8276 15.0264C47.8276 15.355 47.7131 15.6899 47.4732 16.033C47.1193 16.3614 46.6461 16.4744 46.2864 16.4744C45.7838 16.4744 45.1834 16.3542 44.8342 16.0245L44.8253 16.0161L44.815 16.0096C44.4441 15.7762 44.0718 15.4245 43.8252 15.0753L43.7379 14.9518L43.633 15.0607L42.3514 16.3917L42.2755 16.4705L42.3435 16.5561C42.7355 17.0495 43.1287 17.4206 43.6508 17.7904L43.6505 17.7909L43.6615 17.7971C44.2707 18.1422 45.0159 18.5001 45.7769 18.5363V19.9873V20.1123H45.9019H47.3117H47.4367V19.9873V18.2776C48.1875 18.1366 48.8155 17.7716 49.3201 17.2952C49.9876 16.6651 50.3846 15.6635 50.3846 14.7844C50.3846 14.0382 50.1227 13.1488 49.4433 12.632C48.7901 12.0166 48.134 11.6453 47.3493 11.3983Z" fill="#F68121" stroke="#F68121" stroke-width="0.25"/>
</svg>
