<svg width="77" height="70" viewBox="0 0 77 70" fill="none" xmlns="http://www.w3.org/2000/svg">
<path d="M42.9891 0C32.9335 0 21.7335 1.71043 13.4065 10.9383C5.09174 20.1661 0 36.1565 0 63.913V66.9565H26.3444C29.3574 68.8587 32.7448 70 36.5217 70C40.2957 70 43.6891 68.8343 46.6991 66.9565H76.087V63.913C76.087 39.1848 71.3087 24.8226 65.0544 16.453C59.5457 9.08783 53.2091 7.03652 48.5039 6.56174L45.6522 1.52174L44.8 0H42.9891ZM41.2757 6.2787L43.75 10.6522L44.6022 12.1739H46.413C49.487 12.1739 55.0809 13.2087 60.2 20.0687C65.0878 26.6 69.3913 39.0478 69.8113 60.8696H53.4526C53.7874 60.4435 54.0917 59.9809 54.4052 59.5365C58.5352 53.6413 60.8696 46.2822 60.8696 39.5652H54.7826C54.7826 44.8061 52.8226 51.2126 49.4565 56.0183C46.0904 60.827 41.5891 63.913 36.5217 63.913C31.4604 63.913 26.9561 60.8391 23.587 56.0183C20.2178 51.2035 18.2609 44.7696 18.2609 39.5652C18.2609 38.2139 18.5196 37.5352 18.9304 36.9965C19.3322 36.4578 20.0383 35.9922 21.1126 35.5722C23.2644 34.72 26.8952 34.37 30.7209 34.0504C34.5496 33.7278 38.5426 33.4235 42.1339 31.7678C45.7252 30.1091 48.6957 26.3565 48.6957 21.3043H42.6087C42.6087 24.4817 41.7748 25.273 39.6565 26.25C37.5444 27.2239 33.9287 27.6439 30.1487 27.9635C26.3687 28.28 22.3878 28.4596 18.827 29.8626C17.0526 30.5626 15.333 31.6217 14.0791 33.2896C12.813 34.9543 12.1739 37.1852 12.1739 39.5652C12.1739 46.2548 14.5113 53.5348 18.6413 59.4391C18.9761 59.9261 19.3261 60.407 19.6883 60.8696H6.26957C6.68044 36.0257 11.4739 22.2296 17.9687 15.0257C24.3235 7.98304 32.5257 6.45826 41.2696 6.2787H41.2757ZM27.3913 39.5652C26.5841 39.5652 25.81 39.8859 25.2392 40.4566C24.6685 41.0274 24.3478 41.8015 24.3478 42.6087C24.3478 43.4159 24.6685 44.19 25.2392 44.7608C25.81 45.3315 26.5841 45.6522 27.3913 45.6522C28.1985 45.6522 28.9726 45.3315 29.5434 44.7608C30.1141 44.19 30.4348 43.4159 30.4348 42.6087C30.4348 41.8015 30.1141 41.0274 29.5434 40.4566C28.9726 39.8859 28.1985 39.5652 27.3913 39.5652ZM45.6522 39.5652C44.845 39.5652 44.0709 39.8859 43.5001 40.4566C42.9293 41.0274 42.6087 41.8015 42.6087 42.6087C42.6087 43.4159 42.9293 44.19 43.5001 44.7608C44.0709 45.3315 44.845 45.6522 45.6522 45.6522C46.4594 45.6522 47.2335 45.3315 47.8042 44.7608C48.375 44.19 48.6957 43.4159 48.6957 42.6087C48.6957 41.8015 48.375 41.0274 47.8042 40.4566C47.2335 39.8859 46.4594 39.5652 45.6522 39.5652Z" fill="#F68121"/>
</svg>
