<svg width="68" height="61" viewBox="0 0 68 61" fill="none" xmlns="http://www.w3.org/2000/svg">
<path d="M65.8594 12.3907C64.8122 9.96597 63.3022 7.76872 61.4141 5.92193C59.5245 4.06963 57.2966 2.59764 54.8516 1.58599C52.3162 0.532813 49.5969 -0.00626395 46.8516 5.49131e-05C43 5.49131e-05 39.2422 1.05474 35.9766 3.04693C35.1953 3.52349 34.4531 4.04693 33.75 4.61724C33.0469 4.04693 32.3047 3.52349 31.5234 3.04693C28.2578 1.05474 24.5 5.49131e-05 20.6484 5.49131e-05C17.875 5.49131e-05 15.1875 0.531305 12.6484 1.58599C10.1953 2.60162 7.98437 4.06256 6.08594 5.92193C4.19529 7.76664 2.68498 9.9644 1.64062 12.3907C0.554688 14.9141 0 17.5938 0 20.3516C0 22.9532 0.53125 25.6641 1.58594 28.4219C2.46875 30.7266 3.73437 33.1172 5.35156 35.5313C7.91406 39.3516 11.4375 43.336 15.8125 47.3751C23.0625 54.0704 30.2422 58.6954 30.5469 58.8829L32.3984 60.0704C33.2188 60.5938 34.2734 60.5938 35.0938 60.0704L36.9453 58.8829C37.25 58.6876 44.4219 54.0704 51.6797 47.3751C56.0547 43.336 59.5781 39.3516 62.1406 35.5313C63.7578 33.1172 65.0312 30.7266 65.9062 28.4219C66.9609 25.6641 67.4922 22.9532 67.4922 20.3516C67.5 17.5938 66.9453 14.9141 65.8594 12.3907V12.3907ZM33.75 53.8907C33.75 53.8907 5.9375 36.0704 5.9375 20.3516C5.9375 12.3907 12.5234 5.93755 20.6484 5.93755C26.3594 5.93755 31.3125 9.12505 33.75 13.7813C36.1875 9.12505 41.1406 5.93755 46.8516 5.93755C54.9766 5.93755 61.5625 12.3907 61.5625 20.3516C61.5625 36.0704 33.75 53.8907 33.75 53.8907Z" fill="#F68121"/>
</svg>
