<svg width="36" height="36" viewBox="0 0 36 36" fill="none" xmlns="http://www.w3.org/2000/svg">
<circle cx="18" cy="18" r="18" transform="rotate(180 18 18)" fill="#3C3D3C" fill-opacity="0.5"/>
<path fill-rule="evenodd" clip-rule="evenodd" d="M21.8884 11.9062C22.5023 12.4447 22.5023 13.318 21.8884 13.8565L15.5204 19.4431C14.9065 19.9816 13.9111 19.9816 13.2972 19.4431C12.6833 18.9045 12.6833 18.0313 13.2972 17.4927L19.6652 11.9062C20.2791 11.3676 21.2745 11.3676 21.8884 11.9062Z" fill="white"/>
<path fill-rule="evenodd" clip-rule="evenodd" d="M21.8884 11.9062C22.5023 12.4447 22.5023 13.318 21.8884 13.8565L15.5204 19.4431C14.9065 19.9816 13.9111 19.9816 13.2972 19.4431C12.6833 18.9045 12.6833 18.0313 13.2972 17.4927L19.6652 11.9062C20.2791 11.3676 21.2745 11.3676 21.8884 11.9062Z" fill="white"/>
<path fill-rule="evenodd" clip-rule="evenodd" d="M21.8884 25.025C22.5023 24.4864 22.5023 23.6132 21.8884 23.0746L15.5204 17.4881C14.9065 16.9495 13.9111 16.9495 13.2972 17.4881C12.6833 18.0267 12.6833 18.8999 13.2972 19.4385L19.6652 25.025C20.2791 25.5636 21.2745 25.5636 21.8884 25.025Z" fill="white"/>
<path fill-rule="evenodd" clip-rule="evenodd" d="M21.8884 25.025C22.5023 24.4864 22.5023 23.6132 21.8884 23.0746L15.5204 17.4881C14.9065 16.9495 13.9111 16.9495 13.2972 17.4881C12.6833 18.0267 12.6833 18.8999 13.2972 19.4385L19.6652 25.025C20.2791 25.5636 21.2745 25.5636 21.8884 25.025Z" fill="white"/>
</svg>
