<svg width="36" height="36" viewBox="0 0 36 36" fill="none" xmlns="http://www.w3.org/2000/svg">
<circle cx="18" cy="18" r="18" fill="#3C3D3C" fill-opacity="0.5"/>
<path fill-rule="evenodd" clip-rule="evenodd" d="M14.1116 24.0938C13.4977 23.5553 13.4977 22.682 14.1116 22.1435L20.4796 16.5569C21.0935 16.0184 22.0889 16.0184 22.7028 16.557C23.3167 17.0955 23.3167 17.9687 22.7028 18.5073L16.3348 24.0938C15.7209 24.6324 14.7255 24.6324 14.1116 24.0938Z" fill="white"/>
<path fill-rule="evenodd" clip-rule="evenodd" d="M14.1116 24.0938C13.4977 23.5553 13.4977 22.682 14.1116 22.1435L20.4796 16.5569C21.0935 16.0184 22.0889 16.0184 22.7028 16.557C23.3167 17.0955 23.3167 17.9687 22.7028 18.5073L16.3348 24.0938C15.7209 24.6324 14.7255 24.6324 14.1116 24.0938Z" fill="white"/>
<path fill-rule="evenodd" clip-rule="evenodd" d="M14.1116 10.975C13.4977 11.5136 13.4977 12.3868 14.1116 12.9254L20.4796 18.5119C21.0935 19.0505 22.0889 19.0505 22.7028 18.5119C23.3167 17.9733 23.3167 17.1001 22.7028 16.5615L16.3348 10.975C15.7209 10.4364 14.7255 10.4364 14.1116 10.975Z" fill="white"/>
<path fill-rule="evenodd" clip-rule="evenodd" d="M14.1116 10.975C13.4977 11.5136 13.4977 12.3868 14.1116 12.9254L20.4796 18.5119C21.0935 19.0505 22.0889 19.0505 22.7028 18.5119C23.3167 17.9733 23.3167 17.1001 22.7028 16.5615L16.3348 10.975C15.7209 10.4364 14.7255 10.4364 14.1116 10.975Z" fill="white"/>
</svg>
