<svg width="25" height="25" viewBox="0 0 25 25" fill="none" xmlns="http://www.w3.org/2000/svg">
<path d="M1.17188 0C0.861074 0 0.563003 0.188137 0.343234 0.523023C0.123465 0.85791 0 1.31211 0 1.78571C0 2.25932 0.123465 2.71352 0.343234 3.04841C0.563003 3.38329 0.861074 3.57143 1.17188 3.57143H23.8281C24.1389 3.57143 24.437 3.38329 24.6568 3.04841C24.8765 2.71352 25 2.25932 25 1.78571C25 1.31211 24.8765 0.85791 24.6568 0.523023C24.437 0.188137 24.1389 0 23.8281 0H1.17188ZM1.17188 7.14286C0.861074 7.14286 0.563003 7.33099 0.343234 7.66588C0.123465 8.00077 0 8.45497 0 8.92857C0 9.40217 0.123465 9.85637 0.343234 10.1913C0.563003 10.5261 0.861074 10.7143 1.17188 10.7143H23.8281C24.1389 10.7143 24.437 10.5261 24.6568 10.1913C24.8765 9.85637 25 9.40217 25 8.92857C25 8.45497 24.8765 8.00077 24.6568 7.66588C24.437 7.33099 24.1389 7.14286 23.8281 7.14286H1.17188ZM0 16.0714C0 15.5978 0.123465 15.1436 0.343234 14.8087C0.563003 14.4739 0.861074 14.2857 1.17188 14.2857H23.8281C24.1389 14.2857 24.437 14.4739 24.6568 14.8087C24.8765 15.1436 25 15.5978 25 16.0714C25 16.545 24.8765 16.9992 24.6568 17.3341C24.437 17.669 24.1389 17.8571 23.8281 17.8571H1.17188C0.861074 17.8571 0.563003 17.669 0.343234 17.3341C0.123465 16.9992 0 16.545 0 16.0714ZM1.17188 21.4286C0.861074 21.4286 0.563003 21.6167 0.343234 21.9516C0.123465 22.2865 0 22.7407 0 23.2143C0 23.6879 0.123465 24.1421 0.343234 24.477C0.563003 24.8119 0.861074 25 1.17188 25H16.0156C16.3264 25 16.6245 24.8119 16.8443 24.477C17.064 24.1421 17.1875 23.6879 17.1875 23.2143C17.1875 22.7407 17.064 22.2865 16.8443 21.9516C16.6245 21.6167 16.3264 21.4286 16.0156 21.4286H1.17188Z" fill="#F68121"/>
</svg>
