<svg width="25" height="25" viewBox="0 0 25 25" fill="none" xmlns="http://www.w3.org/2000/svg">
<circle cx="12.5" cy="12.5" r="11" stroke="#F68121" stroke-width="3"/>
<path d="M13.6953 6.625L13.3594 14.3984H11.2188L10.8828 6.625H13.6953ZM10.8125 16.8203C10.8125 16.4453 10.9479 16.1328 11.2188 15.8828C11.4896 15.6276 11.8411 15.5 12.2734 15.5C12.7057 15.5 13.0547 15.6276 13.3203 15.8828C13.5911 16.1328 13.7266 16.4453 13.7266 16.8203C13.7266 17.1953 13.5911 17.5104 13.3203 17.7656C13.0547 18.0156 12.7057 18.1406 12.2734 18.1406C11.8411 18.1406 11.4896 18.0156 11.2188 17.7656C10.9479 17.5104 10.8125 17.1953 10.8125 16.8203Z" fill="#F68121"/>
</svg>
