<svg width="60" height="60" viewBox="0 0 60 60" fill="none" xmlns="http://www.w3.org/2000/svg">
<path fill-rule="evenodd" clip-rule="evenodd" d="M30 2.7907C14.9727 2.7907 2.7907 14.9727 2.7907 30C2.7907 45.0273 14.9727 57.2093 30 57.2093C45.0273 57.2093 57.2093 45.0273 57.2093 30C57.2093 14.9727 45.0273 2.7907 30 2.7907ZM30 -4.76916e-07C13.4315 -1.92538e-06 6.21692e-06 13.4315 4.76845e-06 30C3.31998e-06 46.5685 13.4315 60 30 60C46.5685 60 60 46.5685 60 30C60 13.4315 46.5685 9.71552e-07 30 -4.76916e-07Z" fill="#EEE7DF"/>
<path fill-rule="evenodd" clip-rule="evenodd" d="M23.1925 46.7885C21.8651 45.3922 21.8651 43.1283 23.1925 41.732L36.9612 27.2485C38.2886 25.8522 40.4407 25.8522 41.7681 27.2485C43.0955 28.6448 43.0955 30.9087 41.7681 32.305L27.9995 46.7885C26.6721 48.1848 24.5199 48.1848 23.1925 46.7885Z" fill="#EEE7DF"/>
<path fill-rule="evenodd" clip-rule="evenodd" d="M23.1925 46.7885C21.8651 45.3922 21.8651 43.1283 23.1925 41.732L36.9612 27.2485C38.2886 25.8522 40.4407 25.8522 41.7681 27.2485C43.0955 28.6448 43.0955 30.9087 41.7681 32.305L27.9995 46.7885C26.6721 48.1848 24.5199 48.1848 23.1925 46.7885Z" fill="#EEE7DF"/>
<path fill-rule="evenodd" clip-rule="evenodd" d="M23.1925 12.775C21.8651 14.1713 21.8651 16.4352 23.1925 17.8315L36.9612 32.315C38.2886 33.7113 40.4407 33.7113 41.7681 32.315C43.0955 30.9187 43.0955 28.6548 41.7681 27.2585L27.9995 12.775C26.6721 11.3786 24.5199 11.3786 23.1925 12.775Z" fill="#EEE7DF"/>
<path fill-rule="evenodd" clip-rule="evenodd" d="M23.1925 12.775C21.8651 14.1713 21.8651 16.4352 23.1925 17.8315L36.9612 32.315C38.2886 33.7113 40.4407 33.7113 41.7681 32.315C43.0955 30.9187 43.0955 28.6548 41.7681 27.2585L27.9995 12.775C26.6721 11.3786 24.5199 11.3786 23.1925 12.775Z" fill="#EEE7DF"/>
</svg>
