<svg width="27" height="27" viewBox="0 0 27 27" fill="none" xmlns="http://www.w3.org/2000/svg">
<path d="M20.7986 13.502V24.1346H2.86655V6.20249H13.6825H13.7653L13.8239 6.14391L15.4904 4.47736L15.8319 4.13594H15.349H2.66655C2.17151 4.13594 1.69675 4.33259 1.3467 4.68264C0.996654 5.03268 0.8 5.50745 0.8 6.00249V24.3346C0.8 24.8296 0.996654 25.3044 1.3467 25.6544C1.69675 26.0045 2.17151 26.2011 2.66655 26.2011H20.9986C21.4937 26.2011 21.9684 26.0045 22.3185 25.6544C22.6685 25.3044 22.8652 24.8296 22.8652 24.3346V11.8354V11.3526L22.5238 11.694L20.8572 13.3606L20.7986 13.4191V13.502Z" fill="#F68121" stroke="#F68121" stroke-width="0.4"/>
<path d="M20.7563 1.25301L20.7561 1.25323L9.33185 12.7441L9.29163 12.7846L9.2788 12.8401L8.35386 16.8482L8.35379 16.8482L8.35273 16.8534C8.30745 17.0767 8.31221 17.3072 8.36667 17.5284C8.42113 17.7496 8.52393 17.9559 8.66768 18.1326C8.81143 18.3094 8.99255 18.452 9.19803 18.5504C9.40035 18.6472 9.62132 18.6987 9.84552 18.7013C9.95912 18.7131 10.0736 18.7127 10.1872 18.7002L10.1979 18.699L10.2084 18.6967L14.2498 17.8051L14.3073 17.7924L14.3488 17.7505L25.7471 6.24386C25.7473 6.24374 25.7474 6.24362 25.7475 6.2435C25.8909 6.10037 26.0047 5.93037 26.0824 5.74322C26.1601 5.55591 26.2001 5.35511 26.2001 5.15231C26.2001 4.94952 26.1601 4.74871 26.0824 4.5614C26.0047 4.37409 25.8907 4.20397 25.7471 4.06076L22.9394 1.25301C22.9394 1.25298 22.9393 1.25296 22.9393 1.25293C22.7961 1.10937 22.626 0.995471 22.4387 0.91775C22.2514 0.840014 22.0506 0.8 21.8478 0.8C21.645 0.8 21.4442 0.840014 21.2569 0.91775C21.0696 0.995485 20.8995 1.10941 20.7563 1.25301ZM21.6654 7.4109L13.2396 15.8856L10.5575 16.4792L11.1804 13.8191L19.5985 5.34397L21.6654 7.4109ZM22.8899 6.1865L20.8211 4.1177L21.8325 3.08668L23.9144 5.16853L22.8899 6.1865Z" fill="#F68121" stroke="#F68121" stroke-width="0.4"/>
</svg>
