<svg width="29" height="35" viewBox="0 0 29 35" fill="none" xmlns="http://www.w3.org/2000/svg">
<path d="M14.5 19.1875C17.0888 19.1875 19.1875 17.0888 19.1875 14.5C19.1875 11.9112 17.0888 9.8125 14.5 9.8125C11.9112 9.8125 9.8125 11.9112 9.8125 14.5C9.8125 17.0888 11.9112 19.1875 14.5 19.1875Z" stroke="#F68121" stroke-width="2.5" stroke-linecap="round" stroke-linejoin="round"/>
<path d="M14.5 2C11.1848 2 8.00537 3.31696 5.66117 5.66117C3.31696 8.00537 2 11.1848 2 14.5C2 17.4562 2.62812 19.3906 4.34375 21.5312L14.5 33.25L24.6562 21.5312C26.3719 19.3906 27 17.4562 27 14.5C27 11.1848 25.683 8.00537 23.3388 5.66117C20.9946 3.31696 17.8152 2 14.5 2V2Z" stroke="#F68121" stroke-width="2.5" stroke-linecap="round" stroke-linejoin="round"/>
</svg>
