<svg width="33" height="33" viewBox="0 0 33 33" fill="none" xmlns="http://www.w3.org/2000/svg">
<path d="M16.5024 9.45333e-08C13.6139 -0.000309054 10.7758 0.757633 8.27208 2.19805C5.76832 3.63846 3.68657 5.71087 2.23495 8.20809C0.783334 10.7053 0.0127205 13.5398 0.000156139 16.4282C-0.0124082 19.3166 0.733516 22.1578 2.16335 24.6675L0.678293 29.8815C0.583103 30.2201 0.579809 30.5779 0.668748 30.9181C0.757687 31.2584 0.935651 31.5688 1.18434 31.8175C1.43303 32.0662 1.74347 32.2441 2.08374 32.333C2.424 32.422 2.78182 32.4187 3.12039 32.3235L8.3346 30.8385C10.5303 32.0887 12.9838 32.818 15.5059 32.9701C18.028 33.1222 20.5514 32.6931 22.8815 31.7158C25.2115 30.7386 27.286 29.2393 28.945 27.3336C30.604 25.4279 31.8032 23.1667 32.4501 20.7243C33.0969 18.2819 33.1743 15.7236 32.6761 13.2466C32.1779 10.7696 31.1174 8.44012 29.5766 6.43772C28.0357 4.43532 26.0555 2.81351 23.7888 1.69735C21.522 0.581182 19.0291 0.000474957 16.5024 9.45333e-08V9.45333e-08ZM16.5024 31.68C13.7722 31.6863 11.0916 30.9506 8.74712 29.5515C8.64477 29.4994 8.53194 29.4712 8.41711 29.469H8.2356L2.75738 31.0365C2.64544 31.0665 2.52756 31.0666 2.41561 31.0366C2.30365 31.0066 2.20156 30.9477 2.11961 30.8657C2.03766 30.7838 1.97873 30.6817 1.94875 30.5698C1.91878 30.4578 1.91881 30.3399 1.94884 30.228L3.51641 24.75C3.56281 24.5775 3.53909 24.3936 3.45041 24.2385C1.7429 21.357 1.03635 17.9918 1.44081 14.667C1.84527 11.3421 3.33803 8.24441 5.68656 5.85633C8.03509 3.46825 11.1075 1.92391 14.4252 1.46387C17.743 1.00383 21.1197 1.65393 24.0295 3.3129C26.9392 4.97186 29.2186 7.54654 30.5125 10.6359C31.8064 13.7252 32.0422 17.1557 31.1832 20.393C30.3242 23.6304 28.4186 26.4927 25.7633 28.5342C23.1079 30.5757 19.8519 31.6817 16.5024 31.68V31.68ZM24.8353 19.5525L21.4691 17.6385C21.1622 17.4627 20.8141 17.3716 20.4604 17.3745C20.1067 17.3774 19.7601 17.4742 19.4561 17.655L17.179 19.0245C15.8073 18.3131 14.6892 17.1951 13.9778 15.8235L15.3474 13.5465C15.5282 13.2425 15.625 12.8959 15.6279 12.5422C15.6308 12.1885 15.5397 11.8404 15.3639 11.5335L13.4498 8.1675C13.2909 7.89222 13.0624 7.66351 12.7873 7.50425C12.5122 7.34498 12.2001 7.26076 11.8822 7.26C10.4847 7.25999 9.14415 7.81401 8.15439 8.80064C7.16463 9.78726 6.6064 11.126 6.60203 12.5235C6.59986 14.345 6.95678 16.1491 7.65237 17.8326C8.34795 19.516 9.36857 21.0459 10.6559 22.3347C11.9431 23.6234 13.4719 24.6458 15.1546 25.3434C16.8373 26.041 18.641 26.4 20.4626 26.4H20.4791C21.8766 26.3956 23.2154 25.8374 24.2021 24.8477C25.1888 23.858 25.7428 22.5175 25.7428 21.12C25.742 20.8021 25.6578 20.49 25.4985 20.215C25.3393 19.9399 25.1106 19.7114 24.8353 19.5525V19.5525ZM20.4791 25.08H20.4626C17.1351 25.0756 13.9454 23.7508 11.5941 21.3965C9.24278 19.0421 7.92208 15.8508 7.92209 12.5235C7.92645 11.4761 8.34561 10.4731 9.08781 9.73402C9.83001 8.99494 10.8348 8.57999 11.8822 8.58C11.9667 8.58116 12.0494 8.60467 12.1219 8.64814C12.1943 8.69162 12.254 8.7535 12.2948 8.8275L14.2253 12.1935C14.2817 12.2973 14.3112 12.4136 14.3112 12.5317C14.3112 12.6499 14.2817 12.7662 14.2253 12.87L12.6743 15.444C12.6171 15.5345 12.5841 15.6381 12.5783 15.745C12.5725 15.8518 12.5942 15.9584 12.6413 16.0545C13.5006 17.9692 15.0332 19.5017 16.948 20.361C17.0441 20.4081 17.1506 20.4297 17.2575 20.424C17.3644 20.4182 17.468 20.3851 17.5585 20.328L20.1326 18.777C20.2364 18.7207 20.3527 18.6912 20.4708 18.6912C20.589 18.6912 20.7053 18.7207 20.8091 18.777L24.1752 20.7075C24.2492 20.7483 24.3111 20.8079 24.3546 20.8804C24.3981 20.9528 24.4216 21.0355 24.4228 21.12C24.4228 22.1674 24.0078 23.1722 23.2687 23.9143C22.5296 24.6565 21.5265 25.0756 20.4791 25.08V25.08Z" fill="#3C3D3C"/>
</svg>
