<svg width="43" height="86" viewBox="0 0 43 86" fill="none" xmlns="http://www.w3.org/2000/svg">
<path d="M22.6651 37.7444C13.2765 34.9256 10.2572 32.0111 10.2572 27.4722C10.2572 22.2644 14.4345 18.6333 21.4243 18.6333C28.7863 18.6333 31.5161 22.6944 31.7642 28.6667H40.9047C40.6152 20.4489 36.2724 12.9 27.6283 10.4633V0H15.2204V10.32C7.19659 12.3267 0.744474 18.3467 0.744474 27.5678C0.744474 38.6044 8.64417 44.0989 20.1835 47.3C30.5235 50.1667 32.5914 54.3711 32.5914 58.8144C32.5914 62.1111 30.5648 67.3667 21.4243 67.3667C12.9042 67.3667 9.55409 62.9711 9.09913 57.3333H0C0.496316 67.7967 7.27931 73.6733 15.2204 75.6322V86H27.6283V75.7278C35.6934 73.96 42.1042 68.5611 42.1042 58.7667C42.1042 45.1978 32.0538 40.5633 22.6651 37.7444Z" fill="#F68121"/>
</svg>
