<svg width="34" height="34" viewBox="0 0 34 34" fill="none" xmlns="http://www.w3.org/2000/svg">
<path d="M33 9.88889V24.1111C33 26.4686 32.0635 28.7295 30.3965 30.3965C28.7295 32.0635 26.4686 33 24.1111 33H9.88889C7.53141 33 5.27049 32.0635 3.6035 30.3965C1.93651 28.7295 1 26.4686 1 24.1111V9.88889C1 7.53141 1.93651 5.27049 3.6035 3.6035C5.27049 1.93651 7.53141 1 9.88889 1H24.1111C26.4686 1 28.7295 1.93651 30.3965 3.6035C32.0635 5.27049 33 7.53141 33 9.88889Z" stroke="#3C3D3C" stroke-width="1.5" stroke-linecap="round" stroke-linejoin="round"/>
<path d="M13.4447 16.9997C12.3898 16.9997 11.3587 17.3125 10.4816 17.8985C9.60456 18.4845 8.92097 19.3175 8.51731 20.292C8.11364 21.2666 8.00802 22.3389 8.21381 23.3735C8.4196 24.4081 8.92755 25.3584 9.67343 26.1042C10.4193 26.8501 11.3696 27.3581 12.4042 27.5639C13.4387 27.7696 14.5111 27.664 15.4856 27.2604C16.4602 26.8567 17.2931 26.1731 17.8792 25.296C18.4652 24.419 18.778 23.3878 18.778 22.333V6.33301C19.37 8.11079 21.6224 11.6663 25.8891 11.6663" stroke="#3C3D3C" stroke-width="1.5" stroke-linecap="round" stroke-linejoin="round"/>
</svg>
