<svg width="21" height="17" viewBox="0 0 21 17" fill="none" xmlns="http://www.w3.org/2000/svg">
<path d="M19.0556 2.61539H15.75L14.9625 0.495055C14.9081 0.349967 14.8084 0.224554 14.677 0.135948C14.5456 0.0473417 14.389 -0.000136051 14.2285 2.92836e-07H6.77153C6.4434 2.92836e-07 6.14931 0.198489 6.03993 0.495055L5.25 2.61539H1.94444C0.870139 2.61539 0 3.45137 0 4.48352V15.1319C0 16.164 0.870139 17 1.94444 17H19.0556C20.1299 17 21 16.164 21 15.1319V4.48352C21 3.45137 20.1299 2.61539 19.0556 2.61539ZM10.5 13.2637C8.35139 13.2637 6.61111 11.5918 6.61111 9.52747C6.61111 7.46319 8.35139 5.79121 10.5 5.79121C12.6486 5.79121 14.3889 7.46319 14.3889 9.52747C14.3889 11.5918 12.6486 13.2637 10.5 13.2637ZM8.16667 9.52747C8.16667 10.122 8.4125 10.6922 8.85008 11.1126C9.28767 11.533 9.88116 11.7692 10.5 11.7692C11.1188 11.7692 11.7123 11.533 12.1499 11.1126C12.5875 10.6922 12.8333 10.122 12.8333 9.52747C12.8333 8.93292 12.5875 8.36272 12.1499 7.94231C11.7123 7.5219 11.1188 7.28571 10.5 7.28571C9.88116 7.28571 9.28767 7.5219 8.85008 7.94231C8.4125 8.36272 8.16667 8.93292 8.16667 9.52747Z" fill="#3C3D3C"/>
</svg>
