<svg width="142" height="76" viewBox="0 0 142 76" fill="none" xmlns="http://www.w3.org/2000/svg">
<path d="M141.401 36.3139L103.109 0.6906C102.631 0.248275 101.984 0 101.309 0C100.635 0 99.9877 0.248275 99.5094 0.6906L61.2169 36.3139C60.7987 36.7683 60.5801 37.3527 60.6049 37.9504C60.6297 38.5481 60.8961 39.115 61.3507 39.538C61.8054 39.961 62.4148 40.2087 63.0573 40.2318C63.6998 40.2549 64.328 40.0516 64.8164 39.6625L101.296 5.72537L137.776 39.6863C138.265 40.0753 138.893 40.2787 139.535 40.2556C140.178 40.2325 140.787 39.9847 141.242 39.5618C141.697 39.1388 141.963 38.5718 141.988 37.9741C142.013 37.3764 141.794 36.792 141.376 36.3377L141.401 36.3139Z" fill="#F68121"/>
<path d="M126.828 71.2478H114.064V47.4989H88.5354V71.2478H75.7712V26.0299L70.6655 30.7797V71.2478C70.6655 72.5075 71.2034 73.7157 72.1609 74.6064C73.1184 75.4972 74.4171 75.9976 75.7712 75.9976H93.641V52.2487H108.958V75.9976H126.828C128.182 75.9976 129.481 75.4972 130.438 74.6064C131.396 73.7157 131.934 72.5075 131.934 71.2478V30.2097L126.828 25.46V71.2478Z" fill="#F68121"/>
<path fill-rule="evenodd" clip-rule="evenodd" d="M84.9516 17.4958L79.6484 22.7195V20.1409H26.5495V49.0386C25.1957 48.7174 23.8048 48.5515 22.4078 48.5446H21.2396V34.9603H10.6198C9.21152 34.9603 7.86093 35.4807 6.86513 36.4071C5.86933 37.3335 5.3099 38.5899 5.3099 39.9V42.3699H15.9297V47.3097H5.3099V59.6591H11.6818C12.6132 57.6463 14.1582 55.9315 16.1258 54.7267C18.0934 53.5218 20.3973 52.8797 22.7529 52.8797C25.1085 52.8797 27.4124 53.5218 29.38 54.7267C31.3476 55.9315 32.8926 57.6463 33.824 59.6591H51.9573C52.8711 57.6316 54.4107 55.9017 56.3813 54.6883C58.352 53.4749 60.6653 52.8324 63.0285 52.8422C65.2738 52.8883 67.4568 53.5383 69.3136 54.7136C71.1705 55.889 72.6217 57.5394 73.492 59.4655C74.3624 61.3916 74.6145 63.511 74.218 65.5675C73.8215 67.624 72.7934 69.5298 71.2578 71.0544C69.7221 72.5791 67.7448 73.6574 65.5646 74.1592C63.3844 74.661 61.0947 74.5647 58.9721 73.8819C56.8495 73.1992 54.9848 71.9592 53.6034 70.3119C52.2219 68.6646 51.3828 66.6803 51.1874 64.5989H34.5143C34.177 67.3003 32.7843 69.7922 30.6012 71.6008C28.418 73.4095 25.5966 74.4088 22.6733 74.4088C19.7499 74.4088 16.9285 73.4095 14.7453 71.6008C12.5622 69.7922 11.1696 67.3003 10.8322 64.5989H2.65495C1.95081 64.5989 1.27551 64.3387 0.777611 63.8755C0.279712 63.4123 0 62.784 0 62.129V39.9C0 37.2798 1.11887 34.7669 3.11047 32.9141C5.10206 31.0614 7.80325 30.0205 10.6198 30.0205H21.2396V17.6711C21.2396 17.016 21.5193 16.3878 22.0172 15.9246C22.5151 15.4614 23.1904 15.2012 23.8945 15.2012H82.3034C83.0075 15.2012 83.6828 15.4614 84.1807 15.9246C84.634 16.3463 84.9065 16.9048 84.9516 17.4958ZM65.5693 69.2064C64.7557 69.4777 63.8909 69.5907 63.0285 69.5386C62.166 69.5907 61.3012 69.4777 60.4876 69.2064C59.674 68.9352 58.9288 68.5116 58.2982 67.9618C57.6676 67.412 57.1649 66.7477 56.8213 66.0099C56.4776 65.2722 56.3003 64.4767 56.3003 63.6727C56.3003 62.8686 56.4776 62.0731 56.8213 61.3354C57.1649 60.5977 57.6676 59.9333 58.2982 59.3835C58.9288 58.8337 59.674 58.4101 60.4876 58.1389C61.3012 57.8677 62.166 57.7546 63.0285 57.8067C63.8909 57.7546 64.7557 57.8677 65.5693 58.1389C66.3829 58.4101 67.1281 58.8337 67.7587 59.3835C68.3894 59.9333 68.892 60.5977 69.2357 61.3354C69.5793 62.0731 69.7566 62.8686 69.7566 63.6727C69.7566 64.4767 69.5793 65.2722 69.2357 66.0099C68.892 66.7477 68.3894 67.412 67.7587 67.9618C67.1281 68.5116 66.3829 68.9352 65.5693 69.2064ZM26.1751 68.4053C25.1782 69.0865 23.9883 69.4806 22.7529 69.5386C21.0391 69.5785 19.3783 68.9848 18.1342 67.8876C16.8901 66.7904 16.1642 65.2792 16.1155 63.685C16.1119 62.5343 16.4714 61.4079 17.1495 60.4454C17.8276 59.483 18.7943 58.7269 19.93 58.2708C21.0657 57.8148 22.3202 57.6788 23.5382 57.8799C24.7561 58.0809 25.8838 58.6101 26.7815 59.4018C27.6792 60.1934 28.3074 61.2128 28.5881 62.3335C28.8689 63.4542 28.7899 64.6269 28.361 65.7063C27.932 66.7856 27.172 67.724 26.1751 68.4053Z" fill="#F68121"/>
</svg>
