<svg width="34" height="34" viewBox="0 0 34 34" fill="none" xmlns="http://www.w3.org/2000/svg">
<path d="M16.9998 24.1109C18.8858 24.1109 20.6945 23.3617 22.0281 22.0281C23.3617 20.6945 24.1109 18.8858 24.1109 16.9998C24.1109 15.1138 23.3617 13.3051 22.0281 11.9715C20.6945 10.6379 18.8858 9.88867 16.9998 9.88867C15.1138 9.88867 13.3051 10.6379 11.9715 11.9715C10.6379 13.3051 9.88867 15.1138 9.88867 16.9998C9.88867 18.8858 10.6379 20.6945 11.9715 22.0281C13.3051 23.3617 15.1138 24.1109 16.9998 24.1109V24.1109Z" stroke="#3C3D3C" stroke-width="1.5" stroke-linecap="round" stroke-linejoin="round"/>
<path d="M1 24.1111V9.88889C1 7.53141 1.93651 5.27049 3.6035 3.6035C5.27049 1.93651 7.53141 1 9.88889 1H24.1111C26.4686 1 28.7295 1.93651 30.3965 3.6035C32.0635 5.27049 33 7.53141 33 9.88889V24.1111C33 26.4686 32.0635 28.7295 30.3965 30.3965C28.7295 32.0635 26.4686 33 24.1111 33H9.88889C7.53141 33 5.27049 32.0635 3.6035 30.3965C1.93651 28.7295 1 26.4686 1 24.1111Z" stroke="#3C3D3C" stroke-width="1.5"/>
<path d="M26.7773 7.24026L26.7951 7.2207" stroke="#3C3D3C" stroke-width="1.5" stroke-linecap="round" stroke-linejoin="round"/>
</svg>
