<svg width="36" height="36" viewBox="0 0 36 36" fill="none" xmlns="http://www.w3.org/2000/svg">
<path d="M18 0.925C8.58553 0.925 0.925 8.58339 0.925 17.9989C0.925 27.4145 8.58553 35.0729 18 35.0729C27.4145 35.0729 35.075 27.4145 35.075 17.9989C35.075 8.58339 27.4145 0.925 18 0.925ZM18 33.7906C9.29282 33.7906 2.20939 26.7061 2.20939 17.9989C2.20939 9.29174 9.29282 2.20727 18 2.20727C26.7072 2.20727 33.7906 9.29174 33.7906 17.9989C33.7906 26.7061 26.7072 33.7906 18 33.7906Z" fill="#3C3D3C" stroke="#3C3D3C" stroke-width="0.15"/>
<path d="M21.0677 9.62854H18.8814C17.629 9.62854 16.9085 9.90987 16.4943 10.4618C16.0754 11.0201 15.9539 11.8738 15.9539 13.0627V15.3474C15.9539 15.5012 15.9355 15.6724 15.8071 15.802L15.8068 15.8023C15.7472 15.8618 15.6764 15.909 15.5985 15.9411C15.5207 15.9733 15.4372 15.9897 15.353 15.9896M21.0677 9.62854L13.8346 15.9146V15.9896M21.0677 9.62854V11.5005V9.62854ZM15.353 15.9896L15.3531 15.9146V15.9896H15.353ZM15.353 15.9896H13.8346M13.8346 15.9896H13.7596V17.8879H13.8346M13.8346 15.9896V17.8879M13.8346 17.8879V17.9629H15.3531C15.6669 17.9629 15.88 18.2163 15.88 18.529V26.4054H15.955M13.8346 17.8879H15.3531C15.7154 17.8879 15.955 18.1822 15.955 18.529V26.4054M15.955 26.4054V26.4804H18.0258L17.9508 26.4804L17.9508 26.4054M15.955 26.4054H17.9508M17.9508 26.4054H18.0258L18.0269 18.528C18.0272 18.3777 18.087 18.2337 18.1934 18.1276C18.2997 18.0214 18.4438 17.9618 18.5941 17.9618H21.1059V17.8868M17.9508 26.4054L17.9519 18.528V18.5278C17.9522 18.3577 18.02 18.1947 18.1404 18.0745C18.2608 17.9543 18.424 17.8868 18.5941 17.8868H21.1059M21.1059 17.8868H21.1809V15.9886H21.1059M21.1059 17.8868V15.9886M21.1059 15.9886V15.9136L17.9551 13.3363M21.1059 15.9886H18.592C18.5077 15.9886 18.4242 15.9719 18.3463 15.9396C18.2685 15.9073 18.1977 15.86 18.1382 15.8004C18.0786 15.7407 18.0314 15.6699 17.9993 15.5919C17.9671 15.514 17.9507 15.4305 17.9508 15.3462V15.3462L17.9551 13.3363M17.9551 13.3363H18.0299L17.9551 13.3361L17.9551 13.3363ZM14.7448 13.0638V14.7434H13.2344C13.1527 14.7333 13.0698 14.7417 12.9918 14.7681C12.9122 14.795 12.8399 14.84 12.7805 14.8994C12.721 14.9588 12.6761 15.0311 12.6492 15.1108C12.6228 15.1887 12.6143 15.2716 12.6245 15.3533V18.5242C12.6143 18.6059 12.6228 18.6888 12.6492 18.7668C12.6761 18.8464 12.721 18.9187 12.7805 18.9781C12.8399 19.0376 12.9122 19.0825 12.9918 19.1094C13.0698 19.1358 13.1527 19.1442 13.2344 19.1341H14.7448V27.0061C14.7355 27.0879 14.7446 27.1708 14.7716 27.2486C14.799 27.328 14.8443 27.4 14.9038 27.4592C14.9634 27.5184 15.0357 27.5632 15.1152 27.5902C15.1932 27.6167 15.276 27.6253 15.3577 27.6156H18.5878C18.7647 27.6346 18.9287 27.5729 19.0351 27.4571C19.1412 27.3416 19.1859 27.1766 19.1334 26.9992L19.1355 19.1341H21.7062C21.7879 19.1442 21.8708 19.1358 21.9487 19.1094C22.0283 19.0825 22.1007 19.0376 22.1601 18.9781C22.2195 18.9187 22.2645 18.8464 22.2914 18.7668C22.3178 18.6888 22.3262 18.6059 22.3161 18.5242V15.3533C22.3262 15.2716 22.3178 15.1887 22.2914 15.1108C22.2645 15.0311 22.2195 14.9588 22.1601 14.8994C22.1007 14.84 22.0283 14.795 21.9487 14.7681C21.8708 14.7417 21.7879 14.7333 21.7062 14.7434H19.1325L19.1355 13.2339C19.1611 13.0659 19.1795 12.9528 19.2019 12.875C19.2245 12.7964 19.2466 12.7716 19.2665 12.7602C19.2909 12.7461 19.3321 12.7398 19.4229 12.7448C19.4618 12.747 19.5062 12.7508 19.5588 12.7554C19.565 12.756 19.5714 12.7565 19.5779 12.7571C19.6384 12.7623 19.708 12.7682 19.7877 12.7729L19.7877 12.773H19.7921H21.6887H21.697L21.7051 12.7712C21.7381 12.7639 21.7724 12.7592 21.8094 12.7546C21.8143 12.754 21.8194 12.7534 21.8244 12.7528C21.8562 12.7489 21.8903 12.7447 21.9233 12.7387C22.0012 12.7245 22.085 12.6984 22.1555 12.6299C22.2772 12.5118 22.3553 12.3433 22.315 12.1595V8.9923C22.3253 8.91072 22.3171 8.82784 22.2909 8.74986C22.2641 8.67021 22.2193 8.59783 22.1599 8.53835C22.1005 8.47887 22.0282 8.4339 21.9486 8.40695C21.8707 8.38056 21.7878 8.37214 21.7062 8.38231H18.8828C17.0654 8.3642 16.0213 8.91859 15.4376 9.80079C14.8589 10.6755 14.7448 11.8565 14.7448 13.0638Z" fill="#3C3D3C" stroke="#3C3D3C" stroke-width="0.15"/>
</svg>
