<svg width="78" height="78" viewBox="0 0 78 78" fill="none" xmlns="http://www.w3.org/2000/svg">
<path d="M43.875 46.3125V60.9375C43.875 61.584 44.1318 62.204 44.5889 62.6611C45.046 63.1182 45.666 63.375 46.3125 63.375H60.9375C61.584 63.375 62.204 63.1182 62.6611 62.6611C63.1182 62.204 63.375 61.584 63.375 60.9375V46.3125C63.375 45.666 63.1182 45.046 62.6611 44.5889C62.204 44.1318 61.584 43.875 60.9375 43.875H46.3125C45.666 43.875 45.046 44.1318 44.5889 44.5889C44.1318 45.046 43.875 45.666 43.875 46.3125ZM48.75 58.5V48.75H58.5V58.5H48.75ZM14.625 0C14.2677 0.000133965 13.9149 0.0788053 13.5914 0.230444C13.2679 0.382082 12.9817 0.602981 12.753 0.8775L0.5655 15.5025C0.200358 15.9404 0.000256539 16.4924 0 17.0625V24.375C0 28.704 1.88175 32.5991 4.875 35.2755V75.5625C4.875 76.209 5.13181 76.829 5.58893 77.2861C6.04605 77.7432 6.66603 78 7.3125 78H70.6875C71.334 78 71.954 77.7432 72.4111 77.2861C72.8682 76.829 73.125 76.209 73.125 75.5625V35.2755C76.1183 32.5943 78 28.704 78 24.375V16.9747C78 16.536 78 16.185 77.4345 15.5025L65.247 0.8775C65.0183 0.602981 64.7321 0.382082 64.4086 0.230444C64.0851 0.0788053 63.7323 0.000133965 63.375 0H14.625ZM14.625 34.125C12.0391 34.125 9.55919 33.0978 7.73071 31.2693C5.90223 29.4408 4.875 26.9609 4.875 24.375V19.5H24.375V24.375C24.375 26.9609 23.3478 29.4408 21.5193 31.2693C19.6908 33.0978 17.2109 34.125 14.625 34.125ZM39 34.125C36.4141 34.125 33.9342 33.0978 32.1057 31.2693C30.2772 29.4408 29.25 26.9609 29.25 24.375V19.5H48.75V24.375C48.75 26.9609 47.7228 29.4408 45.8943 31.2693C44.0658 33.0978 41.5859 34.125 39 34.125ZM63.375 34.125C60.7891 34.125 58.3092 33.0978 56.4807 31.2693C54.6522 29.4408 53.625 26.9609 53.625 24.375V19.5H73.125V24.375C73.125 26.9609 72.0978 29.4408 70.2693 31.2693C68.4408 33.0978 65.9609 34.125 63.375 34.125ZM14.625 73.125H9.75V38.1712C12.8227 39.2604 16.1714 39.2906 19.2633 38.257C22.3551 37.2235 25.0125 35.1855 26.8125 32.4675C28.1466 34.4781 29.9578 36.127 32.0845 37.2669C34.2112 38.4068 36.5871 39.0022 39 39C41.4134 39.0017 43.7895 38.4055 45.9163 37.2647C48.043 36.1239 49.854 34.4741 51.1875 32.4626C52.9875 35.1807 55.6449 37.2186 58.7367 38.2521C61.8286 39.2857 65.1773 39.2555 68.25 38.1664V73.125H39V46.3125C39 45.666 38.7432 45.046 38.2861 44.5889C37.829 44.1318 37.209 43.875 36.5625 43.875H17.0625C16.416 43.875 15.796 44.1318 15.3389 44.5889C14.8818 45.046 14.625 45.666 14.625 46.3125V73.125ZM25.0575 14.625H7.644L15.7658 4.875H28.3043L25.0575 14.625ZM47.8042 14.625H30.1958L33.4425 4.875H44.5575L47.8042 14.625ZM52.9425 14.625L49.6958 4.875H62.2342L70.3609 14.625H52.9425V14.625ZM19.5 73.125V48.75H34.125V73.125H19.5Z" fill="#F68121"/>
</svg>
