<svg width="27" height="25" viewBox="0 0 27 25" fill="none" xmlns="http://www.w3.org/2000/svg">
<path d="M13.4163 11.8802C15.6663 11.8802 17.4163 10.0469 17.4163 7.79687C17.4163 5.54687 15.583 3.79688 13.333 3.79688C11.083 3.79688 9.33301 5.63021 9.33301 7.79687C9.33301 10.0469 11.1663 11.8802 13.4163 11.8802ZM13.333 5.46354C13.4163 5.46354 13.4163 5.46354 13.333 5.46354C14.6663 5.46354 15.7497 6.54687 15.7497 7.88021C15.7497 9.21354 14.6663 10.2135 13.333 10.2135C11.9997 10.2135 10.9997 9.13021 10.9997 7.88021C10.9997 6.54687 12.083 5.46354 13.333 5.46354V5.46354Z" fill="#F68121" stroke="#F68121"/>
<path d="M25.75 11.3796C24.1667 9.96298 22.0833 9.21298 19.9167 9.29631H19.25C19.0833 9.96298 18.8333 10.5463 18.5 11.0463C19 10.963 19.4167 10.963 19.9167 10.963C21.5 10.8796 23.0833 11.3796 24.3333 12.2963V18.2963H26V11.6296L25.75 11.3796Z" fill="#F68121" stroke="#F68121"/>
<path d="M18.0002 3.96354C18.4168 2.96354 19.5835 2.46354 20.6668 2.88021C21.6668 3.29687 22.1668 4.46354 21.7502 5.54687C21.4168 6.29687 20.6668 6.79687 19.9168 6.79687C19.7502 6.79687 19.5002 6.79688 19.3335 6.71354C19.4168 7.13021 19.4168 7.54688 19.4168 7.88021V8.38021C19.5835 8.38021 19.7502 8.46354 19.9168 8.46354C22.0002 8.46354 23.6668 6.79688 23.6668 4.79688C23.6668 2.71354 22.0002 1.04688 20.0002 1.04688C18.6668 1.04688 17.5002 1.71354 16.8335 2.88021C17.2502 3.13021 17.6668 3.46354 18.0002 3.96354V3.96354Z" fill="#F68121" stroke="#F68121"/>
<path d="M8.5 11.1303C8.16667 10.6303 7.91667 10.047 7.75 9.38031H7.08333C4.91667 9.29697 2.83333 10.047 1.25 11.3803L1 11.6303V18.297H2.66667V12.297C4 11.3803 5.5 10.8803 7.08333 10.9636C7.58333 10.9636 8.08333 11.047 8.5 11.1303Z" fill="#F68121" stroke="#F68121"/>
<path d="M7.08347 8.38002C7.25013 8.38002 7.4168 8.38002 7.58347 8.29668V7.79668C7.58347 7.38002 7.58347 6.96335 7.6668 6.63002C7.50013 6.71335 7.25013 6.71335 7.08347 6.71335C6.00013 6.71335 5.08347 5.79668 5.08347 4.71335C5.08347 3.63002 6.00013 2.71335 7.08347 2.71335C7.9168 2.71335 8.6668 3.21335 9.00013 3.96335C9.33347 3.54668 9.83347 3.13002 10.2501 2.79668C9.1668 1.04668 6.9168 0.463349 5.1668 1.54668C3.4168 2.63002 2.83347 4.88002 3.9168 6.63002C4.58347 7.71335 5.75013 8.38002 7.08347 8.38002V8.38002Z" fill="#F68121" stroke="#F68121"/>
<path d="M20.2502 16.3798L20.0835 16.1298C18.4168 14.2965 16.0835 13.2131 13.5835 13.2965C11.0835 13.2131 8.66683 14.2965 7.00016 16.1298L6.8335 16.3798V22.7131C6.8335 23.4631 7.41683 24.1298 8.25016 24.1298H18.9168C19.6668 24.1298 20.3335 23.4631 20.3335 22.7131V16.3798H20.2502ZM18.5835 22.4631H8.50016V16.9631C9.8335 15.6298 11.6668 14.9631 13.5835 14.9631C15.4168 14.8798 17.2502 15.6298 18.5835 16.9631V22.4631Z" fill="#F68121" stroke="#F68121"/>
</svg>
