<svg width="60" height="60" viewBox="0 0 60 60" fill="none" xmlns="http://www.w3.org/2000/svg">
<path fill-rule="evenodd" clip-rule="evenodd" d="M30 57.2093C45.0273 57.2093 57.2093 45.0273 57.2093 30C57.2093 14.9727 45.0273 2.7907 30 2.7907C14.9727 2.7907 2.7907 14.9727 2.7907 30C2.7907 45.0273 14.9727 57.2093 30 57.2093ZM30 60C46.5685 60 60 46.5685 60 30C60 13.4315 46.5685 0 30 0C13.4315 0 0 13.4315 0 30C0 46.5685 13.4315 60 30 60Z" fill="#F68121"/>
<path fill-rule="evenodd" clip-rule="evenodd" d="M36.8075 13.2115C38.1349 14.6078 38.1349 16.8717 36.8075 18.268L23.0388 32.7515C21.7114 34.1478 19.5593 34.1478 18.2319 32.7515C16.9045 31.3552 16.9045 29.0913 18.2319 27.695L32.0005 13.2115C33.3279 11.8152 35.4801 11.8152 36.8075 13.2115Z" fill="#F68121"/>
<path fill-rule="evenodd" clip-rule="evenodd" d="M36.8075 13.2115C38.1349 14.6078 38.1349 16.8717 36.8075 18.268L23.0388 32.7515C21.7114 34.1478 19.5593 34.1478 18.2319 32.7515C16.9045 31.3552 16.9045 29.0913 18.2319 27.695L32.0005 13.2115C33.3279 11.8152 35.4801 11.8152 36.8075 13.2115Z" fill="#F68121"/>
<path fill-rule="evenodd" clip-rule="evenodd" d="M36.8075 47.225C38.1349 45.8287 38.1349 43.5648 36.8075 42.1685L23.0388 27.685C21.7114 26.2887 19.5593 26.2887 18.2319 27.685C16.9045 29.0813 16.9045 31.3452 18.2319 32.7415L32.0005 47.225C33.3279 48.6214 35.4801 48.6214 36.8075 47.225Z" fill="#F68121"/>
<path fill-rule="evenodd" clip-rule="evenodd" d="M36.8075 47.225C38.1349 45.8287 38.1349 43.5648 36.8075 42.1685L23.0388 27.685C21.7114 26.2887 19.5593 26.2887 18.2319 27.685C16.9045 29.0813 16.9045 31.3452 18.2319 32.7415L32.0005 47.225C33.3279 48.6214 35.4801 48.6214 36.8075 47.225Z" fill="#F68121"/>
</svg>
