<svg width="25" height="25" viewBox="0 0 25 25" fill="none" xmlns="http://www.w3.org/2000/svg">
<path fill-rule="evenodd" clip-rule="evenodd" d="M3.44843 2.67857C3.21979 2.67857 3.00051 2.77264 2.83883 2.94008C2.67715 3.10753 2.58632 3.33463 2.58632 3.57143V21.4286C2.58632 21.6654 2.67715 21.8925 2.83883 22.0599C3.00051 22.2274 3.21979 22.3214 3.44843 22.3214H12.5006C12.8435 22.3214 13.1725 22.4625 13.415 22.7137C13.6575 22.9649 13.7937 23.3055 13.7937 23.6607C13.7937 24.0159 13.6575 24.3566 13.415 24.6077C13.1725 24.8589 12.8435 25 12.5006 25H3.44843C2.53385 25 1.65673 24.6237 1.01002 23.954C0.363316 23.2842 0 22.3758 0 21.4286V3.57143C0 2.62423 0.363316 1.71582 1.01002 1.04605C1.65673 0.376274 2.53385 0 3.44843 0H20.6906C21.6052 0 22.4823 0.376274 23.129 1.04605C23.7757 1.71582 24.139 2.62423 24.139 3.57143V14.7321C24.139 15.0873 24.0028 15.428 23.7603 15.6792C23.5178 15.9303 23.1888 16.0714 22.8459 16.0714C22.5029 16.0714 22.174 15.9303 21.9315 15.6792C21.6889 15.428 21.5527 15.0873 21.5527 14.7321V3.57143C21.5527 3.33463 21.4619 3.10753 21.3002 2.94008C21.1385 2.77264 20.9192 2.67857 20.6906 2.67857H3.44843ZM24.6218 18.25C24.864 18.5011 25 18.8415 25 19.1964C25 19.5513 24.864 19.8917 24.6218 20.1429L20.3113 24.6071C20.0688 24.8579 19.7401 24.9988 19.3974 24.9988C19.0547 24.9988 18.7261 24.8579 18.4836 24.6071L16.7594 22.8214C16.6323 22.6988 16.5304 22.551 16.4597 22.3867C16.3891 22.2224 16.3511 22.045 16.348 21.8652C16.3449 21.6854 16.3769 21.5068 16.4419 21.34C16.507 21.1732 16.6038 21.0218 16.7266 20.8946C16.8494 20.7674 16.9956 20.6671 17.1566 20.5998C17.3177 20.5324 17.4901 20.4993 17.6638 20.5025C17.8374 20.5057 18.0086 20.545 18.1673 20.6182C18.3259 20.6914 18.4687 20.797 18.5871 20.9286L19.3974 21.7679L22.7941 18.25C23.0366 17.9992 23.3653 17.8583 23.708 17.8583C24.0507 17.8583 24.3793 17.9992 24.6218 18.25V18.25ZM6.46581 5.35714C6.12284 5.35714 5.79392 5.49825 5.55141 5.74941C5.30889 6.00058 5.17265 6.34123 5.17265 6.69643C5.17265 7.05163 5.30889 7.39228 5.55141 7.64345C5.79392 7.89461 6.12284 8.03571 6.46581 8.03571H17.6732C18.0162 8.03571 18.3451 7.89461 18.5876 7.64345C18.8301 7.39228 18.9664 7.05163 18.9664 6.69643C18.9664 6.34123 18.8301 6.00058 18.5876 5.74941C18.3451 5.49825 18.0162 5.35714 17.6732 5.35714H6.46581ZM5.17265 12.5C5.17265 12.1448 5.30889 11.8041 5.55141 11.553C5.79392 11.3018 6.12284 11.1607 6.46581 11.1607H17.6732C18.0162 11.1607 18.3451 11.3018 18.5876 11.553C18.8301 11.8041 18.9664 12.1448 18.9664 12.5C18.9664 12.8552 18.8301 13.1959 18.5876 13.447C18.3451 13.6982 18.0162 13.8393 17.6732 13.8393H6.46581C6.12284 13.8393 5.79392 13.6982 5.55141 13.447C5.30889 13.1959 5.17265 12.8552 5.17265 12.5V12.5ZM6.46581 16.9643C6.12284 16.9643 5.79392 17.1054 5.55141 17.3566C5.30889 17.6077 5.17265 17.9484 5.17265 18.3036C5.17265 18.6588 5.30889 18.9994 5.55141 19.2506C5.79392 19.5018 6.12284 19.6429 6.46581 19.6429H12.5006C12.8435 19.6429 13.1725 19.5018 13.415 19.2506C13.6575 18.9994 13.7937 18.6588 13.7937 18.3036C13.7937 17.9484 13.6575 17.6077 13.415 17.3566C13.1725 17.1054 12.8435 16.9643 12.5006 16.9643H6.46581Z" fill="#F68121"/>
</svg>
